<svg xmlns="http://www.w3.org/2000/svg" width="319" height="474" viewBox="0 0 319 474" fill="none">
    <path fill-rule="evenodd" clip-rule="evenodd" d="M130.659 2.635C128.777 5.027 128.586 6.616 128.583 19.885L128.579 34.5L119.745 36.215C86.8569 42.598 55.7849 61.337 37.2889 85.942C17.0729 112.835 9.86592 150.967 18.6569 184.528C26.4509 214.285 47.3349 235.813 83.7409 251.615C92.9229 255.601 111.411 262.035 123.086 265.308L128.086 266.709L128.346 313.355C128.496 340.373 128.229 360 127.71 360C124.826 360 109.273 353.983 98.0289 348.517C82.6949 341.064 70.4959 333.12 58.2249 322.598C46.9809 312.956 45.6409 312.828 38.8679 320.75C28.6409 332.711 0.919923 367.573 0.294923 369.259C-0.945077 372.6 1.53992 375.942 11.2939 384.05C42.1639 409.708 78.0399 426.756 116.836 434.202L128.586 436.458V452.594C128.586 467.404 128.756 468.947 130.659 471.365L132.731 474H161.004C188.462 474 189.331 473.939 191.181 471.898C192.852 470.054 193.125 467.861 193.403 454.031L193.72 438.266L202.903 437.03C244.376 431.451 280.315 411.378 299.555 383.045C313.824 362.034 320.717 334.237 318.537 306.5C314.411 254.002 280.959 223.355 206.101 203.49L194.086 200.302L193.826 155.651C193.683 131.093 193.756 111 193.99 111C195.729 111 214.569 118.931 222.466 122.987C234.085 128.955 243.325 135.004 253.981 143.618C262.06 150.149 265.504 151.343 268.786 148.75C270.539 147.365 306.667 98.585 308.561 95.046C310.358 91.689 308.407 88.308 301.258 82.391C273.857 59.711 240.2 43.763 205.404 36.972L193.722 34.692L193.404 19.448C193.126 6.132 192.845 3.938 191.181 2.102C189.331 0.0609994 188.462 0 161.004 0H132.731L130.659 2.635ZM179.586 29.477C179.586 47.861 179.076 47.123 193.086 49.01C226.394 53.496 260.944 68.537 289.538 91L292.72 93.5L282.365 107.5C276.67 115.2 270.093 124.097 267.75 127.272L263.491 133.044L257.788 128.661C241.651 116.257 222.141 105.836 203.375 99.597C189.209 94.888 185.303 94.3 182.102 96.398L179.586 98.046V153.452C179.586 202.085 179.775 209.046 181.131 210.402C182.736 212.007 183.33 212.195 200.542 216.515C251.407 229.282 282.868 248.636 295.905 275.18C298.423 280.306 301.192 287.308 302.059 290.74C305.948 306.133 305.77 327.979 301.621 344.515C298.769 355.883 290.005 372.93 282.351 382C262.803 405.162 232.503 419.581 194.086 424.003C178.981 425.742 179.586 424.906 179.586 444.023V460H161.086H142.586V443.573C142.586 427.325 142.559 427.124 140.133 425.216C138.732 424.114 135.203 422.995 131.903 422.607C95.8349 418.368 52.2439 399.564 23.3549 375.781L16.6249 370.24L32.1459 351.117L47.6669 331.995L53.8769 337.174C67.4849 348.525 88.4009 360.673 106.225 367.579C117.493 371.945 131.961 376 136.272 376C142.767 376 142.586 377.739 142.586 315.388C142.586 263.346 142.457 259.071 140.836 257.166C139.713 255.846 135.501 254.151 129.086 252.436C80.1669 239.356 50.8509 221.082 38.2249 195.801C32.7959 184.929 30.9239 178.217 29.4999 164.506C27.5379 145.616 30.9459 127.026 39.5859 109.5C55.3339 77.555 88.4339 55.209 129.949 48.494C142.807 46.414 142.586 46.759 142.586 28.845V14H161.086H179.586V29.477ZM127.558 95.877C98.1749 105.281 80.1709 132.094 85.7099 158.201C88.6929 172.257 97.9989 182.746 115.088 191.315C130.31 198.948 137.79 200.642 140.931 197.171C142.423 195.522 142.586 190.557 142.586 146.671C142.586 99.333 142.531 97.945 140.586 96C138.16 93.574 134.851 93.543 127.558 95.877ZM128.586 146.5C128.586 166.025 128.317 182 127.989 182C127.66 182 123.87 180.168 119.567 177.929C109.15 172.51 102.326 165.354 100.025 157.437C96.5319 145.423 100.301 132.329 110.06 122.569C115.115 117.515 124.761 111.068 127.336 111.022C128.313 111.005 128.586 118.755 128.586 146.5ZM182.221 269.073L179.586 271.145L179.601 323.323C179.61 352.02 179.947 375.995 180.351 376.6C182.053 379.149 185.354 379.933 190.71 379.061C218.521 374.532 239.166 360.582 246.679 341.243C249.765 333.298 250.473 317.588 248.113 309.38C242.934 291.359 225.762 278.816 192.978 269.105C184.39 266.562 185.409 266.565 182.221 269.073ZM200.998 286.503C219.073 293.307 229.609 300.976 233.589 310.229C235.486 314.637 235.746 316.701 235.38 324.443C234.899 334.622 232.406 340.872 225.998 347.966C219.96 354.65 206.93 361.719 197.33 363.52L193.586 364.223V324.111C193.586 302.05 193.757 284 193.967 284C194.176 284 197.341 285.126 200.998 286.503Z" fill="#E3F512"/>
</svg>